<svg version="1.1" id="Layer_1" xmlns="http://www.w3.org/2000/svg" xmlns:xlink="http://www.w3.org/1999/xlink" x="0px" y="0px"
	 width="100%" viewBox="0 0 1200 1200" enable-background="new 0 0 1200 1200" xml:space="preserve">
<path fill="#0D67B5" opacity="1.000000" stroke="none" 
	d="
M815.000000,1201.000000 
	C543.333313,1201.000000 272.166656,1201.000000 1.000000,1201.000000 
	C1.000000,801.000000 1.000000,401.000000 1.000000,1.000000 
	C401.000000,1.000000 801.000000,1.000000 1201.000000,1.000000 
	C1201.000000,401.000000 1201.000000,801.000000 1201.000000,1201.000000 
	C1072.500000,1201.000000 944.000000,1201.000000 815.000000,1201.000000 
M507.582550,278.954620 
	C499.821625,265.123749 488.259155,257.318726 472.205841,256.606476 
	C452.053314,255.712402 433.163025,270.859314 430.032684,290.438141 
	C426.615326,311.812103 439.313141,332.320496 459.326996,337.776581 
	C472.391327,341.338196 484.356506,338.778595 495.473633,331.225098 
	C512.768616,348.089844 530.009949,364.902313 547.213684,381.678070 
	C535.779785,396.022156 529.958130,411.102875 530.029053,428.264160 
	C530.099731,445.362030 536.011780,460.423248 546.009155,473.154053 
	C528.832703,490.481964 511.997253,507.465912 495.130371,524.481567 
	C474.246582,510.542267 451.057281,516.631592 438.361694,532.459839 
	C425.485413,548.513489 426.712799,571.781250 440.999207,586.841797 
	C455.443970,602.069275 477.977417,603.951660 495.512421,591.395691 
	C513.456360,578.546875 516.699402,557.413269 504.208008,533.104126 
	C520.633057,516.737061 537.148071,500.276947 553.675598,483.829285 
	C554.129150,483.377930 554.717773,483.062317 555.205505,482.710754 
	C581.289185,503.359314 617.435242,505.470734 646.406067,483.092865 
	C663.406494,500.034607 680.370667,516.940186 697.396667,533.907471 
	C682.210266,556.692627 691.731262,580.644653 706.042725,591.173462 
	C723.298645,603.868408 746.026245,602.192749 760.627136,587.144287 
	C775.236389,572.087097 776.511169,548.818970 763.448181,532.403809 
	C751.105957,516.894409 728.107544,510.379211 705.997070,524.981506 
	C689.078125,508.230530 672.071106,491.392365 655.167542,474.656647 
	C679.370789,442.923706 675.313171,407.120850 656.038025,382.908112 
	C673.107910,365.848907 690.127319,348.840210 707.217163,331.761078 
	C727.885925,345.857117 751.663452,339.016052 763.950195,323.159698 
	C775.742737,307.941193 775.051208,284.513519 762.169739,270.623322 
	C747.580200,254.891251 724.527039,251.888992 707.817993,263.645874 
	C699.355835,269.600037 693.448608,277.485870 690.986633,287.637390 
	C687.918701,300.287323 690.447388,311.983368 697.507751,322.248749 
	C680.263977,339.449768 663.301819,356.369781 646.305298,373.324158 
	C618.710999,352.054199 584.066162,351.522430 555.992981,373.021851 
	C538.874390,355.935211 521.834778,338.927368 504.692444,321.817047 
	C513.416565,308.709106 514.748230,294.497681 507.582550,278.954620 
M642.894348,712.531494 
	C644.147400,706.512512 645.828003,700.545166 646.562134,694.463501 
	C647.971069,682.792419 649.750671,671.049133 649.657104,659.349609 
	C649.578796,649.572693 643.570435,643.511475 633.896973,642.189026 
	C623.264404,640.735535 612.446960,640.634644 601.418884,639.925659 
	C591.482361,686.765503 581.747559,732.654175 571.902710,779.061829 
	C579.853271,779.061829 587.157043,779.136108 594.458740,779.047424 
	C613.686218,778.813965 625.659180,770.903687 631.883118,752.709534 
	C636.279297,739.858276 639.168274,726.491516 642.894348,712.531494 
M579.987061,652.670654 
	C577.294739,643.916443 571.030518,639.587952 562.213379,639.171265 
	C558.136353,638.978577 553.777405,639.309509 549.934448,640.578491 
	C535.792236,645.248413 529.065308,656.423767 525.997314,670.092102 
	C521.151184,691.682800 516.632324,713.347656 512.083374,735.003906 
	C510.341278,743.297546 507.988708,751.601929 507.510681,759.992432 
	C506.580322,776.321228 519.038940,784.895569 534.373230,779.083374 
	C537.550720,777.878967 540.404602,775.820496 543.609680,774.043579 
	C544.161316,775.656555 544.681274,777.177002 545.327148,779.065735 
	C547.800964,779.065735 550.305298,778.820190 552.741638,779.122192 
	C556.581299,779.598145 557.733948,777.967896 558.441772,774.308655 
	C561.221741,759.936951 564.457153,745.653809 567.471375,731.326843 
	C568.930115,724.392639 570.273560,717.434204 571.798889,709.841553 
	C562.414001,709.841553 553.788391,709.786987 545.166077,709.929871 
	C544.345520,709.943420 543.019287,711.065857 542.822266,711.887878 
	C541.636353,716.835632 540.711609,721.845886 539.663208,727.013611 
	C542.526245,727.306274 544.748840,727.533447 547.484558,727.813049 
	C545.680298,736.177490 544.106384,743.993042 542.258972,751.743347 
	C541.654053,754.281189 540.919250,757.250671 539.184814,758.927063 
	C537.434570,760.618713 534.295471,761.757568 531.912903,761.537354 
	C530.726135,761.427612 529.603821,757.815857 528.963623,755.638000 
	C528.571533,754.304260 529.002258,752.654236 529.312378,751.199402 
	C535.173828,723.699463 541.016846,696.195251 547.052429,668.733398 
	C547.632996,666.091736 549.000122,663.273315 550.859863,661.379089 
	C552.211609,660.002319 555.362793,659.039856 557.005493,659.686523 
	C558.603271,660.315491 560.158691,663.206604 560.207153,665.142578 
	C560.292908,668.565186 559.274414,672.026978 558.620850,675.453796 
	C557.699646,680.283508 556.689697,685.096375 555.591614,690.541626 
	C562.229126,690.541626 568.045349,690.734436 573.827087,690.374268 
	C574.945190,690.304626 576.510498,688.222961 576.872009,686.813477 
	C578.316711,681.181580 579.855469,675.496826 580.422729,669.739319 
	C580.951782,664.369141 580.293396,658.881958 579.987061,652.670654 
M703.734192,773.304138 
	C706.411377,729.191589 709.088623,685.079041 711.791687,640.541748 
	C704.170837,640.541748 697.359436,640.714417 690.563599,640.463501 
	C687.505005,640.350586 686.229370,641.458618 685.222534,644.245605 
	C669.570312,687.574219 653.805237,730.862061 638.085876,774.166443 
	C637.559814,775.615601 637.239380,777.139465 636.700562,779.066956 
	C642.525330,779.066956 647.686279,778.896423 652.828308,779.134094 
	C655.686401,779.266052 656.940796,778.209595 657.775879,775.561035 
	C660.026550,768.422485 662.465454,761.338989 665.039978,754.310669 
	C665.509277,753.029541 666.922424,751.233704 667.984009,751.174011 
	C673.570618,750.859985 679.184265,751.026917 685.190491,751.026917 
	C684.526917,760.671204 683.913940,769.580811 683.280518,778.787598 
	C690.060852,778.787598 696.475281,778.787598 703.045227,778.787598 
	C703.235413,777.166199 703.408386,775.691711 703.734192,773.304138 
M244.843109,918.496582 
	C244.843109,914.407288 244.843109,910.317932 244.843109,906.228638 
	C245.361832,906.193298 245.880539,906.157959 246.399261,906.122620 
	C250.226349,917.061462 254.065475,927.996033 257.876282,938.940552 
	C260.393616,946.170105 260.375397,946.176453 268.049103,945.993835 
	C274.866852,945.831665 275.413055,945.203796 272.955566,938.679260 
	C269.204163,928.719849 265.255737,918.833069 261.267761,908.965271 
	C260.048981,905.949646 259.872314,904.048401 262.846375,901.383911 
	C266.137390,898.435486 269.693054,894.061096 270.123566,889.989319 
	C271.107208,880.686707 271.054901,871.090881 269.905121,861.802124 
	C268.917419,853.823059 261.824249,849.096313 253.743576,849.000793 
	C247.918106,848.931885 242.085831,849.137024 236.266876,848.930237 
	C232.664291,848.802124 231.101990,850.052979 231.125015,853.763855 
	C231.297958,881.645813 231.296112,909.529114 231.532486,937.410400 
	C231.606400,946.128967 231.867203,945.947571 240.331726,946.093811 
	C244.274490,946.161804 245.610428,944.946594 245.361847,940.928772 
	C244.920547,933.795776 244.988419,926.631348 244.843109,918.496582 
M932.842285,941.212341 
	C928.562988,930.200317 924.328674,919.170349 919.971008,908.189453 
	C918.948547,905.612854 919.112244,904.115540 921.357666,901.847168 
	C924.633972,898.537415 928.593445,894.317139 929.056030,890.130737 
	C930.101013,880.675049 929.995911,870.900085 928.807373,861.450012 
	C927.836426,853.729248 920.706421,849.102600 912.864685,849.002258 
	C907.035645,848.927612 901.197083,849.170349 895.377747,848.921875 
	C891.414551,848.752625 890.087708,850.328979 890.114258,854.160522 
	C890.306702,881.899475 890.292175,909.639954 890.537476,937.378296 
	C890.615845,946.237000 890.884338,946.092468 899.809570,946.085083 
	C903.289917,946.082214 904.501709,944.962891 904.377441,941.448242 
	C904.006836,930.968872 903.893799,920.479980 903.724182,909.994141 
	C903.703674,908.730347 903.952759,907.462219 904.076904,906.196167 
	C905.477661,906.909790 905.921509,907.589355 906.182739,908.333069 
	C910.045044,919.325378 913.822815,930.347778 917.755798,941.314697 
	C919.369202,945.813477 929.458618,948.067017 932.782288,944.704651 
	C933.281738,944.199341 932.961609,942.884033 932.842285,941.212341 
M455.858978,867.497681 
	C455.953827,891.614929 456.158142,915.732666 456.042664,939.848877 
	C456.021881,944.194031 457.517670,945.305786 461.517975,945.080139 
	C466.492859,944.799500 471.495544,945.017944 476.486237,945.011597 
	C487.339722,944.997803 493.838989,940.158813 495.752686,929.468567 
	C496.789917,923.674561 496.538452,917.610779 496.501343,911.671021 
	C496.404785,896.216553 496.595001,880.735229 495.713318,865.319458 
	C495.135132,855.210449 488.481812,849.492554 478.759521,849.072998 
	C472.449371,848.800659 466.117950,849.060059 459.797760,848.966675 
	C456.556061,848.918701 455.369812,850.295410 455.583008,853.533081 
	C455.866699,857.842224 455.784180,862.175537 455.858978,867.497681 
M621.243713,905.505493 
	C621.449097,912.968384 621.624329,920.432251 621.868042,927.893921 
	C622.126526,935.808655 625.883667,941.311646 633.186218,944.522949 
	C643.366821,948.999756 656.083435,946.000793 660.421814,936.430420 
	C663.012817,930.714844 663.251770,923.629822 663.338745,917.144104 
	C663.532349,902.714050 663.252747,888.260132 662.568542,873.844299 
	C662.292725,868.032837 661.756775,861.574646 659.049133,856.676880 
	C653.651672,846.913757 643.797058,847.517151 634.321472,849.150452 
	C627.648499,850.300598 623.365112,855.725891 622.094666,864.362000 
	C621.588562,867.802368 621.362061,871.309509 621.331055,874.789124 
	C621.242737,884.694519 621.320496,894.601501 621.243713,905.505493 
M280.452698,886.363464 
	C280.253876,888.332092 279.881348,890.300964 279.884918,892.269226 
	C279.905396,903.559082 279.985626,914.848999 280.102692,926.138367 
	C280.228088,938.228699 287.545593,945.476807 299.012970,946.107666 
	C314.648743,946.967773 321.607849,937.972229 321.714447,926.341553 
	C321.892334,906.921875 321.568329,887.476074 320.687775,868.076172 
	C320.164642,856.551208 315.978485,849.929443 304.252502,848.617004 
	C291.179016,847.153625 282.470612,850.488586 280.623260,863.654297 
	C279.621735,870.791931 280.454712,878.187012 280.452698,886.363464 
M728.392273,941.095764 
	C735.616516,948.092285 744.118652,948.874756 752.838806,945.075500 
	C761.595825,941.260315 763.892700,933.626770 763.682861,924.501953 
	C763.277527,906.876953 763.382812,889.239868 763.301208,871.607727 
	C763.266968,864.208435 763.295471,856.808899 763.295471,848.983337 
	C760.401611,848.983337 758.602661,848.979736 756.803711,848.983948 
	C750.373352,848.998901 750.306702,849.057495 750.286865,855.304260 
	C750.214172,878.254333 750.163391,901.204529 750.049805,924.154419 
	C750.039246,926.296875 750.344482,928.942688 749.254211,930.453796 
	C747.823730,932.436462 745.322449,934.282227 742.972595,934.809509 
	C739.826477,935.515503 737.699097,933.297974 737.169678,930.029663 
	C736.877502,928.226257 736.628601,926.391052 736.624634,924.569519 
	C736.573608,901.294800 736.585938,878.020020 736.544495,854.745239 
	C736.533936,848.821533 736.393433,849.019897 727.509827,848.885315 
	C722.671082,848.812073 722.700806,851.398193 722.719238,854.911987 
	C722.841614,878.208313 722.845276,901.505432 722.866943,924.802246 
	C722.872314,930.604614 723.827942,936.080872 728.392273,941.095764 
M672.449036,923.345032 
	C672.454651,924.676880 672.394165,926.012878 672.476196,927.340027 
	C673.237183,939.642212 680.901917,946.107788 694.747314,946.155090 
	C704.952576,946.189880 712.603699,938.873108 713.054688,927.732605 
	C713.512268,916.430542 713.218323,905.098511 713.278320,893.779724 
	C713.295227,890.593567 712.193420,888.772888 708.585266,888.967224 
	C704.600830,889.181824 700.587952,888.893677 696.607727,889.145264 
	C695.414917,889.220703 693.590088,890.118530 693.247192,891.069519 
	C690.955200,897.425171 692.673767,900.427856 699.275391,901.680237 
	C699.275391,910.065857 699.374817,918.530273 699.228210,926.990479 
	C699.166382,930.558044 697.882568,933.698730 693.645142,933.938354 
	C688.999146,934.201050 686.690857,932.037231 686.633789,926.828552 
	C686.420349,907.363586 686.342651,887.896118 686.391907,868.429993 
	C686.405029,863.258667 689.520386,860.969971 694.592468,861.966492 
	C699.019531,862.836365 698.340149,866.742432 699.134399,869.840332 
	C699.578857,871.573914 700.211487,874.129089 701.454285,874.647156 
	C709.523193,878.011230 713.908020,874.450012 712.580872,865.962952 
	C712.452454,865.141541 712.266724,864.327637 712.076599,863.517578 
	C709.882507,854.165894 702.610046,848.326965 693.075928,848.255066 
	C682.997314,848.179077 675.551208,853.648743 673.275452,863.128052 
	C672.544556,866.172729 672.211792,869.384827 672.209839,872.520630 
	C672.199524,889.141296 672.352600,905.762085 672.449036,923.345032 
M358.149902,920.427551 
	C358.072144,923.419800 358.240051,926.444153 357.853516,929.395996 
	C357.384979,932.974304 355.196686,935.007935 351.393890,934.999634 
	C347.523987,934.991211 345.490417,932.902832 345.229309,929.229675 
	C344.828369,923.590149 344.439575,917.933716 344.438843,912.284485 
	C344.436340,892.481567 344.599548,872.678711 344.706879,852.875793 
	C344.721161,850.237915 343.622223,848.813843 340.800690,848.967285 
	C338.973785,849.066772 337.122803,849.129211 335.307495,848.952454 
	C331.596130,848.591125 330.820160,850.545776 330.838287,853.770630 
	C330.973053,877.750183 330.999084,901.730347 331.082245,925.710205 
	C331.129944,939.466370 339.232391,947.296692 353.071381,947.015808 
	C364.763184,946.778503 372.022705,938.162415 371.849213,925.276917 
	C371.604980,907.142761 371.632568,889.004944 371.562592,870.868591 
	C371.535156,863.754211 371.558105,856.639648 371.558105,848.982544 
	C368.340881,848.982544 366.030365,849.135376 363.747772,848.948120 
	C359.952789,848.636780 358.373535,850.010681 358.380035,854.028503 
	C358.415253,875.835144 358.244354,897.642212 358.149902,920.427551 
M193.831024,900.512085 
	C193.876007,889.527222 193.799332,878.539734 194.028702,867.558716 
	C194.114670,863.443909 196.071442,860.659180 200.843994,860.713562 
	C205.414551,860.765686 206.815598,863.522461 207.297333,867.397156 
	C208.201141,874.666687 210.490036,876.371216 217.618484,874.537476 
	C218.914581,874.204041 220.535629,872.260498 220.710922,870.893982 
	C222.232025,859.036316 214.103180,849.352600 202.002701,848.260620 
	C191.298859,847.294678 181.569229,855.238647 181.176514,866.548340 
	C180.477417,886.681213 180.314331,906.844421 180.484314,926.990234 
	C180.553284,935.164795 184.264572,942.166321 192.661179,944.719604 
	C201.243713,947.329468 210.481796,947.972839 216.392410,939.836243 
	C219.437271,935.644653 220.492828,929.466614 220.948959,924.059814 
	C221.674362,915.461243 221.133591,906.756836 221.152161,898.097229 
	C221.171097,889.265991 221.183670,889.265869 212.212051,889.076782 
	C210.713516,889.045166 209.215012,888.990112 207.716415,888.987061 
	C200.179214,888.971802 199.669312,889.762268 200.230927,897.303101 
	C200.644974,902.862488 205.416031,899.932373 207.848022,901.624390 
	C207.848022,909.472900 207.848907,917.303650 207.845978,925.134399 
	C207.845779,925.633850 207.842636,926.135864 207.795944,926.632446 
	C207.276810,932.150818 205.286346,934.103088 200.458771,934.015991 
	C195.451920,933.925659 193.855942,930.879578 193.830109,926.489929 
	C193.781082,918.162292 193.788116,909.834412 193.831024,900.512085 
M981.213501,920.647583 
	C980.273010,927.519348 979.298279,934.386902 978.433411,941.268127 
	C978.320557,942.166260 978.662537,943.908081 978.978088,943.952576 
	C982.346252,944.427612 985.790222,945.024780 989.123474,944.691040 
	C990.141052,944.589111 991.362854,941.813965 991.664551,940.116211 
	C992.785217,933.810669 993.561340,927.443909 994.442749,921.269043 
	C999.394653,921.269043 1003.499390,921.269043 1007.891235,921.269043 
	C1008.704590,927.571716 1009.367920,933.657715 1010.306274,939.701050 
	C1011.144470,945.099670 1013.832642,946.332397 1021.407166,944.976013 
	C1026.145020,944.127563 1023.894165,940.509338 1023.597595,938.207458 
	C1020.131042,911.302246 1016.485657,884.419861 1012.856323,857.535706 
	C1011.701355,848.980774 1011.656372,848.852295 1003.208191,849.017212 
	C989.812561,849.278687 992.365295,846.299927 990.158325,860.348816 
	C987.048157,880.146973 984.269348,899.997314 981.213501,920.647583 
M557.773315,928.025513 
	C558.169006,930.983154 558.646729,933.932556 558.944336,936.900024 
	C559.718506,944.617798 560.236938,944.846863 568.074158,945.112183 
	C572.592712,945.265137 573.497192,943.557800 572.890686,939.514404 
	C571.409851,929.642944 570.183899,919.733215 568.862427,909.837891 
	C566.417603,891.531311 563.907349,873.232910 561.590210,854.910156 
	C561.069397,850.791809 559.748474,848.437012 555.056274,848.916809 
	C551.596191,849.270569 548.064758,849.117493 544.576965,848.947205 
	C541.849731,848.813965 540.634460,849.983948 540.282349,852.577942 
	C539.633301,857.359131 538.790039,862.114136 538.152161,866.896606 
	C536.050476,882.653809 534.112244,898.433655 531.895386,914.174377 
	C530.629272,923.163635 528.920349,932.090027 527.483215,941.056335 
	C527.337646,941.964539 527.566223,943.741211 527.835327,943.784485 
	C531.175293,944.321960 534.572205,944.940613 537.913635,944.763733 
	C538.894348,944.711792 540.299377,942.319641 540.561279,940.832886 
	C541.707520,934.325745 542.505249,927.757202 543.409363,921.352905 
	C548.322205,921.352905 552.567810,921.352905 556.830139,921.352905 
	C557.123169,923.517456 557.368042,925.326904 557.773315,928.025513 
M881.048706,928.104431 
	C877.557678,905.728577 874.088684,883.349243 870.566833,860.978271 
	C868.677246,848.975891 868.636230,848.982361 856.451782,848.986633 
	C849.235046,848.989075 849.229370,848.988281 848.211365,856.255493 
	C844.608704,881.973938 841.013977,907.693542 837.408630,933.411560 
	C835.630310,946.096680 835.774109,946.245300 849.311340,944.550232 
	C849.947021,940.635559 850.655090,936.564392 851.258423,932.477844 
	C851.857971,928.416748 852.352173,924.340088 852.901245,920.205078 
	C857.806335,920.205078 862.248230,920.205078 867.071411,920.205078 
	C867.655945,925.652649 868.206970,930.909607 868.786682,936.163513 
	C869.819763,945.526489 869.906189,945.491760 879.079773,945.136902 
	C882.196167,945.016418 883.295410,943.709473 882.903259,940.823608 
	C882.365662,936.867493 881.779907,932.917908 881.048706,928.104431 
M382.475128,867.166870 
	C382.550201,875.693848 382.686249,884.220764 382.686615,892.747742 
	C382.687195,906.695679 382.865906,920.651306 382.468109,934.589294 
	C382.124237,946.638184 382.462646,947.217102 395.884766,945.409058 
	C396.112610,939.070862 396.440094,932.512878 396.558380,925.951050 
	C396.676239,919.412537 396.584229,912.870239 396.584229,905.905640 
	C399.244690,905.905640 401.549255,905.955261 403.851105,905.897095 
	C414.111633,905.637817 420.646545,900.523926 422.017029,890.335938 
	C423.051147,882.648254 423.395142,874.733276 422.860535,867.001526 
	C422.117188,856.250244 417.204376,850.658203 407.427979,849.438354 
	C400.044342,848.517090 392.469696,848.955566 384.991272,849.173401 
	C384.011658,849.201965 382.366119,851.476135 382.288147,852.785156 
	C382.022186,857.250488 382.318939,861.749329 382.475128,867.166870 
M788.303894,929.785706 
	C788.303894,920.677979 788.303894,911.570251 788.303894,901.984680 
	C791.795044,901.984680 795.279541,901.721985 798.707520,902.050110 
	C803.141785,902.474609 804.049744,900.392822 804.005737,896.479797 
	C803.960571,892.462708 803.567078,889.507202 798.415283,889.937622 
	C795.040771,890.219604 791.623596,889.990784 788.137939,889.990784 
	C788.137939,880.072571 788.137939,870.683350 788.137939,860.984619 
	C793.345337,860.984619 798.186951,860.637085 802.957947,861.069702 
	C809.397949,861.653687 807.403748,857.042664 807.865967,853.877502 
	C808.411499,850.141724 806.721924,848.850159 803.038696,848.933594 
	C795.043213,849.114807 787.032043,849.212341 779.044678,848.899658 
	C774.765686,848.732178 773.550903,850.332336 773.687134,854.357178 
	C774.187561,869.148254 774.627136,883.944824 774.797180,898.742676 
	C774.957458,912.688293 774.869690,926.640198 774.630432,940.584900 
	C774.557434,944.834412 776.230774,946.247986 780.236328,946.029541 
	C788.194214,945.595703 796.161926,945.102478 804.125366,945.105774 
	C808.367615,945.107544 809.236511,943.233521 808.945740,939.603699 
	C808.688171,936.388428 809.832703,932.572754 804.270874,932.958801 
	C800.124451,933.246582 795.931091,933.179871 791.782288,932.909058 
	C790.586975,932.831055 789.473755,931.497742 788.303894,929.785706 
M940.295105,920.499878 
	C940.432129,927.321350 940.766785,934.146667 940.632629,940.962769 
	C940.551086,945.101990 942.475098,946.195496 946.116089,946.019653 
	C954.241638,945.627380 962.372070,945.103027 970.500732,945.099548 
	C975.152100,945.097534 975.023438,942.449036 974.924927,939.233826 
	C974.827820,936.062866 975.565674,932.677368 970.404358,932.954895 
	C965.164917,933.236694 959.898560,933.017090 954.257874,933.017090 
	C954.257874,922.394165 954.257874,912.463318 954.257874,901.983826 
	C958.049133,901.983826 961.845825,901.794617 965.615356,902.033508 
	C969.946289,902.307922 970.022644,899.650635 969.931824,896.574463 
	C969.838562,893.415955 970.517151,889.875122 965.518127,889.979492 
	C961.776672,890.057617 958.032288,889.994873 954.102173,889.994873 
	C954.102173,880.143311 954.102173,870.751465 954.102173,860.983398 
	C959.429810,860.983398 964.413147,860.743713 969.364075,861.041870 
	C976.105835,861.447876 973.199951,856.354614 973.811340,853.459595 
	C974.564636,849.893311 972.438171,848.887024 969.135071,848.946350 
	C961.472839,849.083862 953.785645,849.332336 946.148926,848.869385 
	C941.018066,848.558350 939.526855,850.225952 939.622498,855.252747 
	C940.029968,876.665100 940.101135,898.083740 940.295105,920.499878 
M580.463867,934.421387 
	C580.598083,936.240845 581.126953,938.137024 580.790710,939.864929 
	C579.875366,944.569031 582.292603,945.153137 586.117126,945.072083 
	C594.438354,944.895630 602.768921,944.880432 611.089661,945.067810 
	C616.039551,945.179260 615.724854,941.978271 615.725647,938.709839 
	C615.726379,935.516541 615.692017,932.690308 611.085693,932.941956 
	C605.813965,933.229919 600.514404,933.008545 594.245300,933.008545 
	C594.245300,920.610413 594.284363,908.700073 594.235168,896.790100 
	C594.176880,882.658020 594.138977,868.524536 593.895325,854.395081 
	C593.793579,848.497925 592.734619,848.074524 585.885132,848.014404 
	C581.011292,847.971619 580.185608,850.382874 580.214966,854.585022 
	C580.398926,880.870728 580.392334,907.157715 580.463867,934.421387 
M506.184753,857.589722 
	C506.215088,867.471375 506.270477,877.353088 506.270233,887.234741 
	C506.269836,903.513550 506.415070,919.795471 506.144012,936.070068 
	C505.981689,945.814270 505.681763,945.702393 515.150391,946.007507 
	C518.688232,946.121399 519.961609,944.712097 519.864563,941.334351 
	C519.726318,936.520996 519.740479,931.701538 519.770813,926.885254 
	C519.925537,902.317810 520.141174,877.750549 520.184326,853.182983 
	C520.186646,851.832703 519.149414,849.707214 518.054077,849.254639 
	C511.279846,846.455750 506.437439,849.618408 506.184753,857.589722 
z"/>
<path fill="#F2F0E7" opacity="1.000000" stroke="none" 
	d="
M507.753296,279.286072 
	C514.748230,294.497681 513.416565,308.709106 504.692444,321.817047 
	C521.834778,338.927368 538.874390,355.935211 555.992981,373.021851 
	C584.066162,351.522430 618.710999,352.054199 646.305298,373.324158 
	C663.301819,356.369781 680.263977,339.449768 697.507751,322.248749 
	C690.447388,311.983368 687.918701,300.287323 690.986633,287.637390 
	C693.448608,277.485870 699.355835,269.600037 707.817993,263.645874 
	C724.527039,251.888992 747.580200,254.891251 762.169739,270.623322 
	C775.051208,284.513519 775.742737,307.941193 763.950195,323.159698 
	C751.663452,339.016052 727.885925,345.857117 707.217163,331.761078 
	C690.127319,348.840210 673.107910,365.848907 656.038025,382.908112 
	C675.313171,407.120850 679.370789,442.923706 655.167542,474.656647 
	C672.071106,491.392365 689.078125,508.230530 705.997070,524.981506 
	C728.107544,510.379211 751.105957,516.894409 763.448181,532.403809 
	C776.511169,548.818970 775.236389,572.087097 760.627136,587.144287 
	C746.026245,602.192749 723.298645,603.868408 706.042725,591.173462 
	C691.731262,580.644653 682.210266,556.692627 697.396667,533.907471 
	C680.370667,516.940186 663.406494,500.034607 646.406067,483.092865 
	C617.435242,505.470734 581.289185,503.359314 555.205505,482.710754 
	C554.717773,483.062317 554.129150,483.377930 553.675598,483.829285 
	C537.148071,500.276947 520.633057,516.737061 504.208008,533.104126 
	C516.699402,557.413269 513.456360,578.546875 495.512421,591.395691 
	C477.977417,603.951660 455.443970,602.069275 440.999207,586.841797 
	C426.712799,571.781250 425.485413,548.513489 438.361694,532.459839 
	C451.057281,516.631592 474.246582,510.542267 495.130371,524.481567 
	C511.997253,507.465912 528.832703,490.481964 546.009155,473.154053 
	C536.011780,460.423248 530.099731,445.362030 530.029053,428.264160 
	C529.958130,411.102875 535.779785,396.022156 547.213684,381.678070 
	C530.009949,364.902313 512.768616,348.089844 495.473633,331.225098 
	C484.356506,338.778595 472.391327,341.338196 459.326996,337.776581 
	C439.313141,332.320496 426.615326,311.812103 430.032684,290.438141 
	C433.163025,270.859314 452.053314,255.712402 472.205841,256.606476 
	C488.259155,257.318726 499.821625,265.123749 507.753296,279.286072 
M630.513611,415.666382 
	C630.759949,425.213654 626.457397,432.807709 620.765198,438.254547 
	C625.160034,444.114410 630.032288,448.925964 632.774536,454.741852 
	C635.505310,460.533630 636.098511,467.333344 637.598938,473.566101 
	C653.100220,463.693298 665.731873,437.250885 657.411133,410.737549 
	C649.100464,384.256256 623.848267,367.048798 596.189636,369.140015 
	C568.560608,371.228973 545.619446,393.070282 542.209167,420.962463 
	C539.537415,442.814270 550.751587,466.114349 565.491699,473.822144 
	C564.831482,459.310608 570.080627,447.696564 581.901978,439.537720 
	C581.829529,439.103180 581.860046,438.886169 581.765869,438.782471 
	C580.761108,437.677185 579.684082,436.633850 578.725769,435.490631 
	C571.785583,427.210999 569.617798,417.804108 572.795471,407.481354 
	C577.095703,393.511932 589.620361,385.691650 604.944336,387.032043 
	C618.181458,388.189880 628.589905,399.556976 630.513611,415.666382 
M459.660797,530.930603 
	C445.548309,537.663696 439.040344,550.133911 442.030579,564.712585 
	C444.614410,577.309692 456.498108,587.509949 469.385071,587.773132 
	C482.267853,588.036133 491.794403,582.210938 497.573364,570.725342 
	C502.650665,560.634155 500.714935,547.370544 493.098419,538.972900 
	C484.080627,529.030334 473.037720,526.612183 459.660797,530.930603 
M496.397308,312.733704 
	C504.511536,297.082062 499.254974,279.427826 484.177216,271.692566 
	C469.573456,264.200470 451.588074,270.262360 444.205658,285.164764 
	C437.419739,298.863068 442.759735,315.940399 456.258453,323.709778 
	C469.953400,331.592072 486.499847,327.292023 496.397308,312.733704 
M701.643982,556.631348 
	C700.755066,574.025574 714.208252,587.032166 729.461548,587.785339 
	C745.801941,588.592163 759.511047,576.213379 760.665039,559.884521 
	C761.706726,545.143677 749.435913,530.318604 735.144531,529.052002 
	C717.287354,527.469360 703.692261,538.299316 701.643982,556.631348 
M749.469177,274.963135 
	C737.926636,266.569733 723.212341,266.487335 712.920288,274.758362 
	C701.999084,283.535034 698.484314,297.888336 704.220886,310.284454 
	C709.927002,322.615082 722.828064,329.533112 736.265442,326.998749 
	C747.877869,324.808594 755.843079,317.873047 759.251892,306.552490 
	C762.922180,294.363129 759.332520,283.951385 749.469177,274.963135 
M581.045532,456.714722 
	C576.084106,464.041962 577.307251,472.362518 577.465393,480.446045 
	C577.486267,481.514557 579.338074,483.003235 580.648315,483.518890 
	C591.680969,487.861023 603.072510,487.995972 614.512085,485.648346 
	C624.835815,483.529724 624.819092,483.371368 624.724670,472.694763 
	C624.708557,470.870636 624.606628,469.032135 624.350464,467.227783 
	C622.811401,456.386505 616.543640,448.777161 606.844971,446.544983 
	C596.382629,444.137085 587.848328,447.424774 581.045532,456.714722 
M588.383789,403.905365 
	C583.033997,409.603729 581.872864,416.174683 584.854492,423.280640 
	C587.609619,429.846802 592.916077,433.364990 599.929260,433.906769 
	C607.737854,434.509979 615.315674,429.276733 617.733032,422.031189 
	C620.238892,414.520172 617.468994,406.140686 611.010010,401.693451 
	C604.226501,397.022736 596.106262,397.648834 588.383789,403.905365 
z"/>
<path fill="#F4F1E7" opacity="1.000000" stroke="none" 
	d="
M642.812256,712.943176 
	C639.168274,726.491516 636.279297,739.858276 631.883118,752.709534 
	C625.659180,770.903687 613.686218,778.813965 594.458740,779.047424 
	C587.157043,779.136108 579.853271,779.061829 571.902710,779.061829 
	C581.747559,732.654175 591.482361,686.765503 601.418884,639.925659 
	C612.446960,640.634644 623.264404,640.735535 633.896973,642.189026 
	C643.570435,643.511475 649.578796,649.572693 649.657104,659.349609 
	C649.750671,671.049133 647.971069,682.792419 646.562134,694.463501 
	C645.828003,700.545166 644.147400,706.512512 642.812256,712.943176 
M616.948059,733.364929 
	C617.475098,730.928284 618.041077,728.499268 618.522888,726.053711 
	C621.866211,709.081665 625.301270,692.126221 628.421143,675.113098 
	C628.972778,672.105103 628.596191,668.759705 627.917297,665.734131 
	C626.993896,661.618591 623.107910,661.279541 619.875122,661.450378 
	C618.742249,661.510193 617.164124,664.165710 616.787964,665.857910 
	C611.770325,688.432495 606.916321,711.043579 602.052856,733.652344 
	C600.322083,741.698059 598.675415,749.761841 596.980286,757.865662 
	C604.679321,758.659546 608.411316,756.990479 611.153992,750.675293 
	C613.461792,745.361389 614.945129,739.689453 616.948059,733.364929 
z"/>
<path fill="#F3F1E7" opacity="1.000000" stroke="none" 
	d="
M580.072388,653.058472 
	C580.293396,658.881958 580.951782,664.369141 580.422729,669.739319 
	C579.855469,675.496826 578.316711,681.181580 576.872009,686.813477 
	C576.510498,688.222961 574.945190,690.304626 573.827087,690.374268 
	C568.045349,690.734436 562.229126,690.541626 555.591614,690.541626 
	C556.689697,685.096375 557.699646,680.283508 558.620850,675.453796 
	C559.274414,672.026978 560.292908,668.565186 560.207153,665.142578 
	C560.158691,663.206604 558.603271,660.315491 557.005493,659.686523 
	C555.362793,659.039856 552.211609,660.002319 550.859863,661.379089 
	C549.000122,663.273315 547.632996,666.091736 547.052429,668.733398 
	C541.016846,696.195251 535.173828,723.699463 529.312378,751.199402 
	C529.002258,752.654236 528.571533,754.304260 528.963623,755.638000 
	C529.603821,757.815857 530.726135,761.427612 531.912903,761.537354 
	C534.295471,761.757568 537.434570,760.618713 539.184814,758.927063 
	C540.919250,757.250671 541.654053,754.281189 542.258972,751.743347 
	C544.106384,743.993042 545.680298,736.177490 547.484558,727.813049 
	C544.748840,727.533447 542.526245,727.306274 539.663208,727.013611 
	C540.711609,721.845886 541.636353,716.835632 542.822266,711.887878 
	C543.019287,711.065857 544.345520,709.943420 545.166077,709.929871 
	C553.788391,709.786987 562.414001,709.841553 571.798889,709.841553 
	C570.273560,717.434204 568.930115,724.392639 567.471375,731.326843 
	C564.457153,745.653809 561.221741,759.936951 558.441772,774.308655 
	C557.733948,777.967896 556.581299,779.598145 552.741638,779.122192 
	C550.305298,778.820190 547.800964,779.065735 545.327148,779.065735 
	C544.681274,777.177002 544.161316,775.656555 543.609680,774.043579 
	C540.404602,775.820496 537.550720,777.878967 534.373230,779.083374 
	C519.038940,784.895569 506.580322,776.321228 507.510681,759.992432 
	C507.988708,751.601929 510.341278,743.297546 512.083374,735.003906 
	C516.632324,713.347656 521.151184,691.682800 525.997314,670.092102 
	C529.065308,656.423767 535.792236,645.248413 549.934448,640.578491 
	C553.777405,639.309509 558.136353,638.978577 562.213379,639.171265 
	C571.030518,639.587952 577.294739,643.916443 580.072388,653.058472 
z"/>
<path fill="#F4F1E7" opacity="1.000000" stroke="none" 
	d="
M703.657715,773.760681 
	C703.408386,775.691711 703.235413,777.166199 703.045227,778.787598 
	C696.475281,778.787598 690.060852,778.787598 683.280518,778.787598 
	C683.913940,769.580811 684.526917,760.671204 685.190491,751.026917 
	C679.184265,751.026917 673.570618,750.859985 667.984009,751.174011 
	C666.922424,751.233704 665.509277,753.029541 665.039978,754.310669 
	C662.465454,761.338989 660.026550,768.422485 657.775879,775.561035 
	C656.940796,778.209595 655.686401,779.266052 652.828308,779.134094 
	C647.686279,778.896423 642.525330,779.066956 636.700562,779.066956 
	C637.239380,777.139465 637.559814,775.615601 638.085876,774.166443 
	C653.805237,730.862061 669.570312,687.574219 685.222534,644.245605 
	C686.229370,641.458618 687.505005,640.350586 690.563599,640.463501 
	C697.359436,640.714417 704.170837,640.541748 711.791687,640.541748 
	C709.088623,685.079041 706.411377,729.191589 703.657715,773.760681 
M682.359375,729.072510 
	C683.832336,729.072510 685.305298,729.072510 687.233154,729.072510 
	C688.401978,713.750122 689.540955,698.818970 690.679993,683.887756 
	C690.233215,683.834717 689.786438,683.781677 689.339661,683.728638 
	C684.187988,698.671448 679.036316,713.614258 673.706909,729.072571 
	C676.803345,729.072571 679.118408,729.072571 682.359375,729.072510 
z"/>
<path fill="#F0EFE6" opacity="1.000000" stroke="none" 
	d="
M244.843201,918.988281 
	C244.988419,926.631348 244.920547,933.795776 245.361847,940.928772 
	C245.610428,944.946594 244.274490,946.161804 240.331726,946.093811 
	C231.867203,945.947571 231.606400,946.128967 231.532486,937.410400 
	C231.296112,909.529114 231.297958,881.645813 231.125015,853.763855 
	C231.101990,850.052979 232.664291,848.802124 236.266876,848.930237 
	C242.085831,849.137024 247.918106,848.931885 253.743576,849.000793 
	C261.824249,849.096313 268.917419,853.823059 269.905121,861.802124 
	C271.054901,871.090881 271.107208,880.686707 270.123566,889.989319 
	C269.693054,894.061096 266.137390,898.435486 262.846375,901.383911 
	C259.872314,904.048401 260.048981,905.949646 261.267761,908.965271 
	C265.255737,918.833069 269.204163,928.719849 272.955566,938.679260 
	C275.413055,945.203796 274.866852,945.831665 268.049103,945.993835 
	C260.375397,946.176453 260.393616,946.170105 257.876282,938.940552 
	C254.065475,927.996033 250.226349,917.061462 246.399261,906.122620 
	C245.880539,906.157959 245.361832,906.193298 244.843109,906.228638 
	C244.843109,910.317932 244.843109,914.407288 244.843201,918.988281 
M258.165344,886.013855 
	C258.101898,881.366882 258.092499,876.718384 257.963470,872.073242 
	C257.711212,862.989624 253.118591,859.962402 244.691711,862.772095 
	C244.691711,872.837158 244.691711,882.729248 244.691711,892.524780 
	C253.448502,893.604614 256.055756,892.432739 258.165344,886.013855 
z"/>
<path fill="#F0EFE6" opacity="1.000000" stroke="none" 
	d="
M932.931396,941.577881 
	C932.961609,942.884033 933.281738,944.199341 932.782288,944.704651 
	C929.458618,948.067017 919.369202,945.813477 917.755798,941.314697 
	C913.822815,930.347778 910.045044,919.325378 906.182739,908.333069 
	C905.921509,907.589355 905.477661,906.909790 904.076904,906.196167 
	C903.952759,907.462219 903.703674,908.730347 903.724182,909.994141 
	C903.893799,920.479980 904.006836,930.968872 904.377441,941.448242 
	C904.501709,944.962891 903.289917,946.082214 899.809570,946.085083 
	C890.884338,946.092468 890.615845,946.237000 890.537476,937.378296 
	C890.292175,909.639954 890.306702,881.899475 890.114258,854.160522 
	C890.087708,850.328979 891.414551,848.752625 895.377747,848.921875 
	C901.197083,849.170349 907.035645,848.927612 912.864685,849.002258 
	C920.706421,849.102600 927.836426,853.729248 928.807373,861.450012 
	C929.995911,870.900085 930.101013,880.675049 929.056030,890.130737 
	C928.593445,894.317139 924.633972,898.537415 921.357666,901.847168 
	C919.112244,904.115540 918.948547,905.612854 919.971008,908.189453 
	C924.328674,919.170349 928.562988,930.200317 932.931396,941.577881 
M917.059570,870.152283 
	C914.281311,861.621155 911.737427,860.282715 903.754883,862.706177 
	C903.754883,872.321167 903.748718,881.768555 903.773987,891.215942 
	C903.775208,891.673218 904.053345,892.129700 904.187012,892.538696 
	C914.424622,893.959290 917.263062,891.523010 917.166626,881.495789 
	C917.133057,878.010010 917.075684,874.524414 917.059570,870.152283 
z"/>
<path fill="#F1EFE7" opacity="1.000000" stroke="none" 
	d="
M455.858978,866.998047 
	C455.784180,862.175537 455.866699,857.842224 455.583008,853.533081 
	C455.369812,850.295410 456.556061,848.918701 459.797760,848.966675 
	C466.117950,849.060059 472.449371,848.800659 478.759521,849.072998 
	C488.481812,849.492554 495.135132,855.210449 495.713318,865.319458 
	C496.595001,880.735229 496.404785,896.216553 496.501343,911.671021 
	C496.538452,917.610779 496.789917,923.674561 495.752686,929.468567 
	C493.838989,940.158813 487.339722,944.997803 476.486237,945.011597 
	C471.495544,945.017944 466.492859,944.799500 461.517975,945.080139 
	C457.517670,945.305786 456.021881,944.194031 456.042664,939.848877 
	C456.158142,915.732666 455.953827,891.614929 455.858978,866.998047 
M469.272064,881.378540 
	C469.272064,898.434998 469.272064,915.491394 469.272064,932.420776 
	C479.803894,934.078247 481.902435,932.503113 482.846069,922.833069 
	C483.007477,921.178894 483.093262,919.509277 483.083740,917.847534 
	C482.995087,902.373169 482.926788,886.898376 482.750977,871.424866 
	C482.643646,861.979614 479.642334,859.757080 469.274933,861.626892 
	C469.274933,867.821533 469.274933,874.116394 469.272064,881.378540 
z"/>
<path fill="#F0EFE6" opacity="1.000000" stroke="none" 
	d="
M621.288330,905.006653 
	C621.320496,894.601501 621.242737,884.694519 621.331055,874.789124 
	C621.362061,871.309509 621.588562,867.802368 622.094666,864.362000 
	C623.365112,855.725891 627.648499,850.300598 634.321472,849.150452 
	C643.797058,847.517151 653.651672,846.913757 659.049133,856.676880 
	C661.756775,861.574646 662.292725,868.032837 662.568542,873.844299 
	C663.252747,888.260132 663.532349,902.714050 663.338745,917.144104 
	C663.251770,923.629822 663.012817,930.714844 660.421814,936.430420 
	C656.083435,946.000793 643.366821,948.999756 633.186218,944.522949 
	C625.883667,941.311646 622.126526,935.808655 621.868042,927.893921 
	C621.624329,920.432251 621.449097,912.968384 621.288330,905.006653 
M649.308899,917.490906 
	C649.237549,909.509521 649.220581,901.527100 649.080566,893.546936 
	C648.923157,884.574463 648.739502,875.600708 648.392639,866.634277 
	C648.255859,863.097229 647.227173,859.923889 642.696655,859.990417 
	C638.458374,860.052673 635.767273,861.902161 635.312500,866.389282 
	C635.080322,868.679749 634.394836,870.963074 634.447693,873.237244 
	C634.862244,891.048218 635.402527,908.856262 635.919495,926.664795 
	C635.948303,927.655884 635.985168,928.677673 636.239075,929.626099 
	C637.272278,933.485657 640.361206,934.083679 643.675415,933.970581 
	C647.127808,933.852844 649.357971,932.138550 649.424866,928.458191 
	C649.485291,925.135803 649.355530,921.809937 649.308899,917.490906 
z"/>
<path fill="#F0EFE6" opacity="1.000000" stroke="none" 
	d="
M280.456421,885.914673 
	C280.454712,878.187012 279.621735,870.791931 280.623260,863.654297 
	C282.470612,850.488586 291.179016,847.153625 304.252502,848.617004 
	C315.978485,849.929443 320.164642,856.551208 320.687775,868.076172 
	C321.568329,887.476074 321.892334,906.921875 321.714447,926.341553 
	C321.607849,937.972229 314.648743,946.967773 299.012970,946.107666 
	C287.545593,945.476807 280.228088,938.228699 280.102692,926.138367 
	C279.985626,914.848999 279.905396,903.559082 279.884918,892.269226 
	C279.881348,890.300964 280.253876,888.332092 280.456421,885.914673 
M294.273071,913.569641 
	C294.276917,917.896545 294.212036,922.224915 294.302002,926.550049 
	C294.414459,931.957214 296.434235,934.007568 301.430145,934.011047 
	C306.085571,934.014282 307.885315,932.047791 307.851959,926.576416 
	C307.798187,917.760071 307.616852,908.944275 307.464752,900.128723 
	C307.281158,889.488525 307.141602,878.846680 306.836700,868.209778 
	C306.726501,864.364197 306.656433,860.204590 301.133636,859.987305 
	C296.320740,859.797852 293.928497,862.199097 293.588196,867.776489 
	C293.379395,871.198364 293.243256,874.636414 293.318848,878.061829 
	C293.572906,889.576172 293.936615,901.088074 294.273071,913.569641 
z"/>
<path fill="#EFEEE6" opacity="1.000000" stroke="none" 
	d="
M728.141602,940.837769 
	C723.827942,936.080872 722.872314,930.604614 722.866943,924.802246 
	C722.845276,901.505432 722.841614,878.208313 722.719238,854.911987 
	C722.700806,851.398193 722.671082,848.812073 727.509827,848.885315 
	C736.393433,849.019897 736.533936,848.821533 736.544495,854.745239 
	C736.585938,878.020020 736.573608,901.294800 736.624634,924.569519 
	C736.628601,926.391052 736.877502,928.226257 737.169678,930.029663 
	C737.699097,933.297974 739.826477,935.515503 742.972595,934.809509 
	C745.322449,934.282227 747.823730,932.436462 749.254211,930.453796 
	C750.344482,928.942688 750.039246,926.296875 750.049805,924.154419 
	C750.163391,901.204529 750.214172,878.254333 750.286865,855.304260 
	C750.306702,849.057495 750.373352,848.998901 756.803711,848.983948 
	C758.602661,848.979736 760.401611,848.983337 763.295471,848.983337 
	C763.295471,856.808899 763.266968,864.208435 763.301208,871.607727 
	C763.382812,889.239868 763.277527,906.876953 763.682861,924.501953 
	C763.892700,933.626770 761.595825,941.260315 752.838806,945.075500 
	C744.118652,948.874756 735.616516,948.092285 728.141602,940.837769 
z"/>
<path fill="#F0EFE6" opacity="1.000000" stroke="none" 
	d="
M672.449036,922.863953 
	C672.352600,905.762085 672.199524,889.141296 672.209839,872.520630 
	C672.211792,869.384827 672.544556,866.172729 673.275452,863.128052 
	C675.551208,853.648743 682.997314,848.179077 693.075928,848.255066 
	C702.610046,848.326965 709.882507,854.165894 712.076599,863.517578 
	C712.266724,864.327637 712.452454,865.141541 712.580872,865.962952 
	C713.908020,874.450012 709.523193,878.011230 701.454285,874.647156 
	C700.211487,874.129089 699.578857,871.573914 699.134399,869.840332 
	C698.340149,866.742432 699.019531,862.836365 694.592468,861.966492 
	C689.520386,860.969971 686.405029,863.258667 686.391907,868.429993 
	C686.342651,887.896118 686.420349,907.363586 686.633789,926.828552 
	C686.690857,932.037231 688.999146,934.201050 693.645142,933.938354 
	C697.882568,933.698730 699.166382,930.558044 699.228210,926.990479 
	C699.374817,918.530273 699.275391,910.065857 699.275391,901.680237 
	C692.673767,900.427856 690.955200,897.425171 693.247192,891.069519 
	C693.590088,890.118530 695.414917,889.220703 696.607727,889.145264 
	C700.587952,888.893677 704.600830,889.181824 708.585266,888.967224 
	C712.193420,888.772888 713.295227,890.593567 713.278320,893.779724 
	C713.218323,905.098511 713.512268,916.430542 713.054688,927.732605 
	C712.603699,938.873108 704.952576,946.189880 694.747314,946.155090 
	C680.901917,946.107788 673.237183,939.642212 672.476196,927.340027 
	C672.394165,926.012878 672.454651,924.676880 672.449036,922.863953 
z"/>
<path fill="#EEEEE6" opacity="1.000000" stroke="none" 
	d="
M358.147156,919.938354 
	C358.244354,897.642212 358.415253,875.835144 358.380035,854.028503 
	C358.373535,850.010681 359.952789,848.636780 363.747772,848.948120 
	C366.030365,849.135376 368.340881,848.982544 371.558105,848.982544 
	C371.558105,856.639648 371.535156,863.754211 371.562592,870.868591 
	C371.632568,889.004944 371.604980,907.142761 371.849213,925.276917 
	C372.022705,938.162415 364.763184,946.778503 353.071381,947.015808 
	C339.232391,947.296692 331.129944,939.466370 331.082245,925.710205 
	C330.999084,901.730347 330.973053,877.750183 330.838287,853.770630 
	C330.820160,850.545776 331.596130,848.591125 335.307495,848.952454 
	C337.122803,849.129211 338.973785,849.066772 340.800690,848.967285 
	C343.622223,848.813843 344.721161,850.237915 344.706879,852.875793 
	C344.599548,872.678711 344.436340,892.481567 344.438843,912.284485 
	C344.439575,917.933716 344.828369,923.590149 345.229309,929.229675 
	C345.490417,932.902832 347.523987,934.991211 351.393890,934.999634 
	C355.196686,935.007935 357.384979,932.974304 357.853516,929.395996 
	C358.240051,926.444153 358.072144,923.419800 358.147156,919.938354 
z"/>
<path fill="#EFEEE6" opacity="1.000000" stroke="none" 
	d="
M193.801453,901.009338 
	C193.788116,909.834412 193.781082,918.162292 193.830109,926.489929 
	C193.855942,930.879578 195.451920,933.925659 200.458771,934.015991 
	C205.286346,934.103088 207.276810,932.150818 207.795944,926.632446 
	C207.842636,926.135864 207.845779,925.633850 207.845978,925.134399 
	C207.848907,917.303650 207.848022,909.472900 207.848022,901.624390 
	C205.416031,899.932373 200.644974,902.862488 200.230927,897.303101 
	C199.669312,889.762268 200.179214,888.971802 207.716415,888.987061 
	C209.215012,888.990112 210.713516,889.045166 212.212051,889.076782 
	C221.183670,889.265869 221.171097,889.265991 221.152161,898.097229 
	C221.133591,906.756836 221.674362,915.461243 220.948959,924.059814 
	C220.492828,929.466614 219.437271,935.644653 216.392410,939.836243 
	C210.481796,947.972839 201.243713,947.329468 192.661179,944.719604 
	C184.264572,942.166321 180.553284,935.164795 180.484314,926.990234 
	C180.314331,906.844421 180.477417,886.681213 181.176514,866.548340 
	C181.569229,855.238647 191.298859,847.294678 202.002701,848.260620 
	C214.103180,849.352600 222.232025,859.036316 220.710922,870.893982 
	C220.535629,872.260498 218.914581,874.204041 217.618484,874.537476 
	C210.490036,876.371216 208.201141,874.666687 207.297333,867.397156 
	C206.815598,863.522461 205.414551,860.765686 200.843994,860.713562 
	C196.071442,860.659180 194.114670,863.443909 194.028702,867.558716 
	C193.799332,878.539734 193.876007,889.527222 193.801453,901.009338 
z"/>
<path fill="#F0EFE7" opacity="1.000000" stroke="none" 
	d="
M981.281189,920.236450 
	C984.269348,899.997314 987.048157,880.146973 990.158325,860.348816 
	C992.365295,846.299927 989.812561,849.278687 1003.208191,849.017212 
	C1011.656372,848.852295 1011.701355,848.980774 1012.856323,857.535706 
	C1016.485657,884.419861 1020.131042,911.302246 1023.597595,938.207458 
	C1023.894165,940.509338 1026.145020,944.127563 1021.407166,944.976013 
	C1013.832642,946.332397 1011.144470,945.099670 1010.306274,939.701050 
	C1009.367920,933.657715 1008.704590,927.571716 1007.891235,921.269043 
	C1003.499390,921.269043 999.394653,921.269043 994.442749,921.269043 
	C993.561340,927.443909 992.785217,933.810669 991.664551,940.116211 
	C991.362854,941.813965 990.141052,944.589111 989.123474,944.691040 
	C985.790222,945.024780 982.346252,944.427612 978.978088,943.952576 
	C978.662537,943.908081 978.320557,942.166260 978.433411,941.268127 
	C979.298279,934.386902 980.273010,927.519348 981.281189,920.236450 
M998.199524,908.987122 
	C1000.977417,908.987122 1003.755310,908.987122 1006.809082,908.987122 
	C1005.250427,895.939392 1003.767517,883.525635 1002.284607,871.111877 
	C1001.852112,871.139099 1001.419678,871.166260 1000.987183,871.193420 
	C999.616455,882.024475 998.197205,892.849792 996.925842,903.692505 
	C996.728516,905.375916 997.207764,907.138672 998.199524,908.987122 
z"/>
<path fill="#F0EFE7" opacity="1.000000" stroke="none" 
	d="
M557.693115,927.580933 
	C557.368042,925.326904 557.123169,923.517456 556.830139,921.352905 
	C552.567810,921.352905 548.322205,921.352905 543.409363,921.352905 
	C542.505249,927.757202 541.707520,934.325745 540.561279,940.832886 
	C540.299377,942.319641 538.894348,944.711792 537.913635,944.763733 
	C534.572205,944.940613 531.175293,944.321960 527.835327,943.784485 
	C527.566223,943.741211 527.337646,941.964539 527.483215,941.056335 
	C528.920349,932.090027 530.629272,923.163635 531.895386,914.174377 
	C534.112244,898.433655 536.050476,882.653809 538.152161,866.896606 
	C538.790039,862.114136 539.633301,857.359131 540.282349,852.577942 
	C540.634460,849.983948 541.849731,848.813965 544.576965,848.947205 
	C548.064758,849.117493 551.596191,849.270569 555.056274,848.916809 
	C559.748474,848.437012 561.069397,850.791809 561.590210,854.910156 
	C563.907349,873.232910 566.417603,891.531311 568.862427,909.837891 
	C570.183899,919.733215 571.409851,929.642944 572.890686,939.514404 
	C573.497192,943.557800 572.592712,945.265137 568.074158,945.112183 
	C560.236938,944.846863 559.718506,944.617798 558.944336,936.900024 
	C558.646729,933.932556 558.169006,930.983154 557.693115,927.580933 
M555.651672,906.603882 
	C554.172485,894.724792 552.693298,882.845703 551.214172,870.966614 
	C550.800049,870.984680 550.385925,871.002747 549.971802,871.020752 
	C548.422424,883.561035 546.873047,896.101318 545.161438,909.954834 
	C549.518982,908.927063 552.618713,908.195984 555.651672,906.603882 
z"/>
<path fill="#F0EFE7" opacity="1.000000" stroke="none" 
	d="
M881.131714,928.534973 
	C881.779907,932.917908 882.365662,936.867493 882.903259,940.823608 
	C883.295410,943.709473 882.196167,945.016418 879.079773,945.136902 
	C869.906189,945.491760 869.819763,945.526489 868.786682,936.163513 
	C868.206970,930.909607 867.655945,925.652649 867.071411,920.205078 
	C862.248230,920.205078 857.806335,920.205078 852.901245,920.205078 
	C852.352173,924.340088 851.857971,928.416748 851.258423,932.477844 
	C850.655090,936.564392 849.947021,940.635559 849.311340,944.550232 
	C835.774109,946.245300 835.630310,946.096680 837.408630,933.411560 
	C841.013977,907.693542 844.608704,881.973938 848.211365,856.255493 
	C849.229370,848.988281 849.235046,848.989075 856.451782,848.986633 
	C868.636230,848.982361 868.677246,848.975891 870.566833,860.978271 
	C874.088684,883.349243 877.557678,905.728577 881.131714,928.534973 
M860.323425,873.433044 
	C860.079956,871.964355 859.836487,870.495728 859.593018,869.027039 
	C859.344543,869.037048 859.096069,869.046997 858.847534,869.057007 
	C857.265320,881.839966 855.683044,894.622986 854.072327,907.635620 
	C857.890503,907.635620 861.385071,907.635620 865.143860,907.635620 
	C863.536560,896.213196 861.989807,885.220398 860.323425,873.433044 
z"/>
<path fill="#F1EFE7" opacity="1.000000" stroke="none" 
	d="
M382.438049,866.701172 
	C382.318939,861.749329 382.022186,857.250488 382.288147,852.785156 
	C382.366119,851.476135 384.011658,849.201965 384.991272,849.173401 
	C392.469696,848.955566 400.044342,848.517090 407.427979,849.438354 
	C417.204376,850.658203 422.117188,856.250244 422.860535,867.001526 
	C423.395142,874.733276 423.051147,882.648254 422.017029,890.335938 
	C420.646545,900.523926 414.111633,905.637817 403.851105,905.897095 
	C401.549255,905.955261 399.244690,905.905640 396.584229,905.905640 
	C396.584229,912.870239 396.676239,919.412537 396.558380,925.951050 
	C396.440094,932.512878 396.112610,939.070862 395.884766,945.409058 
	C382.462646,947.217102 382.124237,946.638184 382.468109,934.589294 
	C382.865906,920.651306 382.687195,906.695679 382.686615,892.747742 
	C382.686249,884.220764 382.550201,875.693848 382.438049,866.701172 
M409.025665,887.813538 
	C409.069550,881.993591 409.521210,876.141174 409.060303,870.361511 
	C408.395599,862.026794 405.431244,860.081177 396.867218,861.216003 
	C396.867218,870.831421 396.833466,880.427795 396.885712,890.023682 
	C396.903748,893.337341 399.796753,894.012390 401.762024,893.352234 
	C404.335449,892.487732 406.457703,890.280273 409.025665,887.813538 
z"/>
<path fill="#F2F0E7" opacity="1.000000" stroke="none" 
	d="
M788.313354,930.262817 
	C789.473755,931.497742 790.586975,932.831055 791.782288,932.909058 
	C795.931091,933.179871 800.124451,933.246582 804.270874,932.958801 
	C809.832703,932.572754 808.688171,936.388428 808.945740,939.603699 
	C809.236511,943.233521 808.367615,945.107544 804.125366,945.105774 
	C796.161926,945.102478 788.194214,945.595703 780.236328,946.029541 
	C776.230774,946.247986 774.557434,944.834412 774.630432,940.584900 
	C774.869690,926.640198 774.957458,912.688293 774.797180,898.742676 
	C774.627136,883.944824 774.187561,869.148254 773.687134,854.357178 
	C773.550903,850.332336 774.765686,848.732178 779.044678,848.899658 
	C787.032043,849.212341 795.043213,849.114807 803.038696,848.933594 
	C806.721924,848.850159 808.411499,850.141724 807.865967,853.877502 
	C807.403748,857.042664 809.397949,861.653687 802.957947,861.069702 
	C798.186951,860.637085 793.345337,860.984619 788.137939,860.984619 
	C788.137939,870.683350 788.137939,880.072571 788.137939,889.990784 
	C791.623596,889.990784 795.040771,890.219604 798.415283,889.937622 
	C803.567078,889.507202 803.960571,892.462708 804.005737,896.479797 
	C804.049744,900.392822 803.141785,902.474609 798.707520,902.050110 
	C795.279541,901.721985 791.795044,901.984680 788.303894,901.984680 
	C788.303894,911.570251 788.303894,920.677979 788.313354,930.262817 
z"/>
<path fill="#F2F0E7" opacity="1.000000" stroke="none" 
	d="
M940.295105,920.000000 
	C940.101135,898.083740 940.029968,876.665100 939.622498,855.252747 
	C939.526855,850.225952 941.018066,848.558350 946.148926,848.869385 
	C953.785645,849.332336 961.472839,849.083862 969.135071,848.946350 
	C972.438171,848.887024 974.564636,849.893311 973.811340,853.459595 
	C973.199951,856.354614 976.105835,861.447876 969.364075,861.041870 
	C964.413147,860.743713 959.429810,860.983398 954.102173,860.983398 
	C954.102173,870.751465 954.102173,880.143311 954.102173,889.994873 
	C958.032288,889.994873 961.776672,890.057617 965.518127,889.979492 
	C970.517151,889.875122 969.838562,893.415955 969.931824,896.574463 
	C970.022644,899.650635 969.946289,902.307922 965.615356,902.033508 
	C961.845825,901.794617 958.049133,901.983826 954.257874,901.983826 
	C954.257874,912.463318 954.257874,922.394165 954.257874,933.017090 
	C959.898560,933.017090 965.164917,933.236694 970.404358,932.954895 
	C975.565674,932.677368 974.827820,936.062866 974.924927,939.233826 
	C975.023438,942.449036 975.152100,945.097534 970.500732,945.099548 
	C962.372070,945.103027 954.241638,945.627380 946.116089,946.019653 
	C942.475098,946.195496 940.551086,945.101990 940.632629,940.962769 
	C940.766785,934.146667 940.432129,927.321350 940.295105,920.000000 
z"/>
<path fill="#EEEEE6" opacity="1.000000" stroke="none" 
	d="
M580.456360,933.932861 
	C580.392334,907.157715 580.398926,880.870728 580.214966,854.585022 
	C580.185608,850.382874 581.011292,847.971619 585.885132,848.014404 
	C592.734619,848.074524 593.793579,848.497925 593.895325,854.395081 
	C594.138977,868.524536 594.176880,882.658020 594.235168,896.790100 
	C594.284363,908.700073 594.245300,920.610413 594.245300,933.008545 
	C600.514404,933.008545 605.813965,933.229919 611.085693,932.941956 
	C615.692017,932.690308 615.726379,935.516541 615.725647,938.709839 
	C615.724854,941.978271 616.039551,945.179260 611.089661,945.067810 
	C602.768921,944.880432 594.438354,944.895630 586.117126,945.072083 
	C582.292603,945.153137 579.875366,944.569031 580.790710,939.864929 
	C581.126953,938.137024 580.598083,936.240845 580.456360,933.932861 
z"/>
<path fill="#EEEEE6" opacity="1.000000" stroke="none" 
	d="
M506.204224,857.126221 
	C506.437439,849.618408 511.279846,846.455750 518.054077,849.254639 
	C519.149414,849.707214 520.186646,851.832703 520.184326,853.182983 
	C520.141174,877.750549 519.925537,902.317810 519.770813,926.885254 
	C519.740479,931.701538 519.726318,936.520996 519.864563,941.334351 
	C519.961609,944.712097 518.688232,946.121399 515.150391,946.007507 
	C505.681763,945.702393 505.981689,945.814270 506.144012,936.070068 
	C506.415070,919.795471 506.269836,903.513550 506.270233,887.234741 
	C506.270477,877.353088 506.215088,867.471375 506.204224,857.126221 
z"/>
<path fill="#1069B6" opacity="1.000000" stroke="none" 
	d="
M630.463257,415.256287 
	C628.589905,399.556976 618.181458,388.189880 604.944336,387.032043 
	C589.620361,385.691650 577.095703,393.511932 572.795471,407.481354 
	C569.617798,417.804108 571.785583,427.210999 578.725769,435.490631 
	C579.684082,436.633850 580.761108,437.677185 581.765869,438.782471 
	C581.860046,438.886169 581.829529,439.103180 581.901978,439.537720 
	C570.080627,447.696564 564.831482,459.310608 565.491699,473.822144 
	C550.751587,466.114349 539.537415,442.814270 542.209167,420.962463 
	C545.619446,393.070282 568.560608,371.228973 596.189636,369.140015 
	C623.848267,367.048798 649.100464,384.256256 657.411133,410.737549 
	C665.731873,437.250885 653.100220,463.693298 637.598938,473.566101 
	C636.098511,467.333344 635.505310,460.533630 632.774536,454.741852 
	C630.032288,448.925964 625.160034,444.114410 620.765198,438.254547 
	C626.457397,432.807709 630.759949,425.213654 630.463257,415.256287 
z"/>
<path fill="#0F68B5" opacity="1.000000" stroke="none" 
	d="
M460.033630,530.798096 
	C473.037720,526.612183 484.080627,529.030334 493.098419,538.972900 
	C500.714935,547.370544 502.650665,560.634155 497.573364,570.725342 
	C491.794403,582.210938 482.267853,588.036133 469.385071,587.773132 
	C456.498108,587.509949 444.614410,577.309692 442.030579,564.712585 
	C439.040344,550.133911 445.548309,537.663696 460.033630,530.798096 
z"/>
<path fill="#0F68B5" opacity="1.000000" stroke="none" 
	d="
M496.212372,313.054199 
	C486.499847,327.292023 469.953400,331.592072 456.258453,323.709778 
	C442.759735,315.940399 437.419739,298.863068 444.205658,285.164764 
	C451.588074,270.262360 469.573456,264.200470 484.177216,271.692566 
	C499.254974,279.427826 504.511536,297.082062 496.212372,313.054199 
z"/>
<path fill="#0F68B5" opacity="1.000000" stroke="none" 
	d="
M701.659546,556.172607 
	C703.692261,538.299316 717.287354,527.469360 735.144531,529.052002 
	C749.435913,530.318604 761.706726,545.143677 760.665039,559.884521 
	C759.511047,576.213379 745.801941,588.592163 729.461548,587.785339 
	C714.208252,587.032166 700.755066,574.025574 701.659546,556.172607 
z"/>
<path fill="#0F68B5" opacity="1.000000" stroke="none" 
	d="
M749.745850,275.191833 
	C759.332520,283.951385 762.922180,294.363129 759.251892,306.552490 
	C755.843079,317.873047 747.877869,324.808594 736.265442,326.998749 
	C722.828064,329.533112 709.927002,322.615082 704.220886,310.284454 
	C698.484314,297.888336 701.999084,283.535034 712.920288,274.758362 
	C723.212341,266.487335 737.926636,266.569733 749.745850,275.191833 
z"/>
<path fill="#1069B6" opacity="1.000000" stroke="none" 
	d="
M581.240845,456.399902 
	C587.848328,447.424774 596.382629,444.137085 606.844971,446.544983 
	C616.543640,448.777161 622.811401,456.386505 624.350464,467.227783 
	C624.606628,469.032135 624.708557,470.870636 624.724670,472.694763 
	C624.819092,483.371368 624.835815,483.529724 614.512085,485.648346 
	C603.072510,487.995972 591.680969,487.861023 580.648315,483.518890 
	C579.338074,483.003235 577.486267,481.514557 577.465393,480.446045 
	C577.307251,472.362518 576.084106,464.041962 581.240845,456.399902 
z"/>
<path fill="#1069B6" opacity="1.000000" stroke="none" 
	d="
M588.651306,403.651031 
	C596.106262,397.648834 604.226501,397.022736 611.010010,401.693451 
	C617.468994,406.140686 620.238892,414.520172 617.733032,422.031189 
	C615.315674,429.276733 607.737854,434.509979 599.929260,433.906769 
	C592.916077,433.364990 587.609619,429.846802 584.854492,423.280640 
	C581.872864,416.174683 583.033997,409.603729 588.651306,403.651031 
z"/>
<path fill="#136AB6" opacity="1.000000" stroke="none" 
	d="
M616.870728,733.770508 
	C614.945129,739.689453 613.461792,745.361389 611.153992,750.675293 
	C608.411316,756.990479 604.679321,758.659546 596.980286,757.865662 
	C598.675415,749.761841 600.322083,741.698059 602.052856,733.652344 
	C606.916321,711.043579 611.770325,688.432495 616.787964,665.857910 
	C617.164124,664.165710 618.742249,661.510193 619.875122,661.450378 
	C623.107910,661.279541 626.993896,661.618591 627.917297,665.734131 
	C628.596191,668.759705 628.972778,672.105103 628.421143,675.113098 
	C625.301270,692.126221 621.866211,709.081665 618.522888,726.053711 
	C618.041077,728.499268 617.475098,730.928284 616.870728,733.770508 
z"/>
<path fill="#186EB7" opacity="1.000000" stroke="none" 
	d="
M681.896423,729.072510 
	C679.118408,729.072571 676.803345,729.072571 673.706909,729.072571 
	C679.036316,713.614258 684.187988,698.671448 689.339661,683.728638 
	C689.786438,683.781677 690.233215,683.834717 690.679993,683.887756 
	C689.540955,698.818970 688.401978,713.750122 687.233154,729.072510 
	C685.305298,729.072510 683.832336,729.072510 681.896423,729.072510 
z"/>
<path fill="#1069B6" opacity="1.000000" stroke="none" 
	d="
M258.111328,886.453979 
	C256.055756,892.432739 253.448502,893.604614 244.691711,892.524780 
	C244.691711,882.729248 244.691711,872.837158 244.691711,862.772095 
	C253.118591,859.962402 257.711212,862.989624 257.963470,872.073242 
	C258.092499,876.718384 258.101898,881.366882 258.111328,886.453979 
z"/>
<path fill="#1069B6" opacity="1.000000" stroke="none" 
	d="
M917.044434,870.595520 
	C917.075684,874.524414 917.133057,878.010010 917.166626,881.495789 
	C917.263062,891.523010 914.424622,893.959290 904.187012,892.538696 
	C904.053345,892.129700 903.775208,891.673218 903.773987,891.215942 
	C903.748718,881.768555 903.754883,872.321167 903.754883,862.706177 
	C911.737427,860.282715 914.281311,861.621155 917.044434,870.595520 
z"/>
<path fill="#136AB6" opacity="1.000000" stroke="none" 
	d="
M469.273499,880.894897 
	C469.274933,874.116394 469.274933,867.821533 469.274933,861.626892 
	C479.642334,859.757080 482.643646,861.979614 482.750977,871.424866 
	C482.926788,886.898376 482.995087,902.373169 483.083740,917.847534 
	C483.093262,919.509277 483.007477,921.178894 482.846069,922.833069 
	C481.902435,932.503113 479.803894,934.078247 469.272064,932.420776 
	C469.272064,915.491394 469.272064,898.434998 469.273499,880.894897 
z"/>
<path fill="#136AB6" opacity="1.000000" stroke="none" 
	d="
M649.309265,917.988281 
	C649.355530,921.809937 649.485291,925.135803 649.424866,928.458191 
	C649.357971,932.138550 647.127808,933.852844 643.675415,933.970581 
	C640.361206,934.083679 637.272278,933.485657 636.239075,929.626099 
	C635.985168,928.677673 635.948303,927.655884 635.919495,926.664795 
	C635.402527,908.856262 634.862244,891.048218 634.447693,873.237244 
	C634.394836,870.963074 635.080322,868.679749 635.312500,866.389282 
	C635.767273,861.902161 638.458374,860.052673 642.696655,859.990417 
	C647.227173,859.923889 648.255859,863.097229 648.392639,866.634277 
	C648.739502,875.600708 648.923157,884.574463 649.080566,893.546936 
	C649.220581,901.527100 649.237549,909.509521 649.309265,917.988281 
z"/>
<path fill="#136AB6" opacity="1.000000" stroke="none" 
	d="
M294.265717,913.085327 
	C293.936615,901.088074 293.572906,889.576172 293.318848,878.061829 
	C293.243256,874.636414 293.379395,871.198364 293.588196,867.776489 
	C293.928497,862.199097 296.320740,859.797852 301.133636,859.987305 
	C306.656433,860.204590 306.726501,864.364197 306.836700,868.209778 
	C307.141602,878.846680 307.281158,889.488525 307.464752,900.128723 
	C307.616852,908.944275 307.798187,917.760071 307.851959,926.576416 
	C307.885315,932.047791 306.085571,934.014282 301.430145,934.011047 
	C296.434235,934.007568 294.414459,931.957214 294.302002,926.550049 
	C294.212036,922.224915 294.276917,917.896545 294.265717,913.085327 
z"/>
<path fill="#186EB7" opacity="1.000000" stroke="none" 
	d="
M997.786865,908.925903 
	C997.207764,907.138672 996.728516,905.375916 996.925842,903.692505 
	C998.197205,892.849792 999.616455,882.024475 1000.987183,871.193420 
	C1001.419678,871.166260 1001.852112,871.139099 1002.284607,871.111877 
	C1003.767517,883.525635 1005.250427,895.939392 1006.809082,908.987122 
	C1003.755310,908.987122 1000.977417,908.987122 997.786865,908.925903 
z"/>
<path fill="#186EB7" opacity="1.000000" stroke="none" 
	d="
M555.685059,907.034424 
	C552.618713,908.195984 549.518982,908.927063 545.161438,909.954834 
	C546.873047,896.101318 548.422424,883.561035 549.971802,871.020752 
	C550.385925,871.002747 550.800049,870.984680 551.214172,870.966614 
	C552.693298,882.845703 554.172485,894.724792 555.685059,907.034424 
z"/>
<path fill="#186EB7" opacity="1.000000" stroke="none" 
	d="
M860.383179,873.830322 
	C861.989807,885.220398 863.536560,896.213196 865.143860,907.635620 
	C861.385071,907.635620 857.890503,907.635620 854.072327,907.635620 
	C855.683044,894.622986 857.265320,881.839966 858.847534,869.057007 
	C859.096069,869.046997 859.344543,869.037048 859.593018,869.027039 
	C859.836487,870.495728 860.079956,871.964355 860.383179,873.830322 
z"/>
<path fill="#1069B6" opacity="1.000000" stroke="none" 
	d="
M408.899841,888.232056 
	C406.457703,890.280273 404.335449,892.487732 401.762024,893.352234 
	C399.796753,894.012390 396.903748,893.337341 396.885712,890.023682 
	C396.833466,880.427795 396.867218,870.831421 396.867218,861.216003 
	C405.431244,860.081177 408.395599,862.026794 409.060303,870.361511 
	C409.521210,876.141174 409.069550,881.993591 408.899841,888.232056 
z"/>
</svg>